<svg id="eBYT5XDafSz1" xmlns="http://www.w3.org/2000/svg" xmlns:xlink="http://www.w3.org/1999/xlink" viewBox="0 0 300 300" shape-rendering="geometricPrecision" text-rendering="geometricPrecision"><path d="M150.292399,189.561404q0,0,74.8538,0h-150.877193" transform="matrix(.604651 0 0 1 26.524232 4.093568)" fill="none" stroke="#fff" stroke-width="20" stroke-linecap="round" stroke-linejoin="round"/><path d="M150.292399,189.561404q0,0,74.8538,0h-150.877193" transform="matrix(.348837 0 0 1 160.641985 4.093568)" fill="none" stroke="#fff" stroke-width="20" stroke-linecap="round" stroke-linejoin="round"/><path d="M70.175439,150c1.826863-39.12179,7.189705-97.971139,47.953216-108.391814" transform="matrix(1.367648 0 0 0.967096-49.191709-18.513952)" fill="none" stroke="#fff" stroke-width="20" stroke-linecap="round" stroke-linejoin="round"/><path d="M70.175439,150c1.826863-39.12179,7.189705-97.971139,47.953216-108.391814" transform="matrix(1.367648 0 0 0.967096 8.703027-18.513951)" fill="none" stroke="#fff" stroke-width="20" stroke-linecap="round" stroke-linejoin="round"/><path d="M70.175439,150c1.826863-39.12179,7.189705-97.971139,47.953216-108.391814" transform="matrix(-1.367648 0 0 0.967096 344.01456-18.513952)" fill="none" stroke="#fff" stroke-width="20" stroke-linecap="round" stroke-linejoin="round"/><path d="M107.017544,264.561377q0,0-34.648985,0L59.86858,155.994171h-33.552571h247.367981-34.502682L228.947224,264.561377h-81.664812" transform="translate(.000005 0)" fill="none" stroke="#fff" stroke-width="20" stroke-linecap="round" stroke-linejoin="round"/><path d="M171.259023,40.291658c27.777757,14.035088,29.910568,55.117699,29.910568,82.018284" transform="translate(6.518755 4.240506)" fill="none" stroke="#fff" stroke-width="20" stroke-linecap="round" stroke-linejoin="round"/></svg>
