<svg id="eRAzoW6JSKw1" xmlns="http://www.w3.org/2000/svg" xmlns:xlink="http://www.w3.org/1999/xlink" viewBox="0 0 300 300" shape-rendering="geometricPrecision" text-rendering="geometricPrecision"><path d="M191.238643,255.02924h71.919252v-33.918129c-26.005271-4.506432-38.730543-10.97996-39.798921-29.97076s19.84934-28.1648,38.483133-28.654971c16.355844-1.151891,40.588874,13.855205,38.490402,28.654971c1.291543,23.209167-26.372082,29.055303-38.929,28.216373" transform="translate(-19.883041 22.485381)" fill="none" stroke="#fff" stroke-width="20" stroke-linecap="round" stroke-linejoin="round"/><path d="M261.403511,162.485382q-1.754386-40.789476,0-40.789476t-211.695909,0v133.333336q94.73684,0,94.152045,0" transform="translate(-19.88304 22.485379)" fill="none" stroke="#fff" stroke-width="20" stroke-linecap="round" stroke-linejoin="round"/><path d="M55.24218,54.131071L108.187135,0L228.684211,120.497076l-105.292398,1.19883L69.883041,68.187134Q55.24218,54.131071,55.24218,54.131071t14.348463,14.348461h-19.883038v53.216374" transform="translate(-19.883043 22.485379)" fill="none" stroke="#fff" stroke-width="20" stroke-linecap="round" stroke-linejoin="round"/><path d="M177.777778,68.479532h35.672514v36.25731" transform="translate(-19.883043 22.485379)" fill="none" stroke="#fff" stroke-width="20" stroke-linecap="round" stroke-linejoin="round"/></svg>
